<?xml version="1.0" encoding="UTF-8" standalone="no"?>
<svg
   width="575"
   height="295"
   id="graph-svg"
   style="font-size:20px;font-family:Arial"
   version="1.1"
   sodipodi:docname="graph - Мен үйдө болчумун.svg"
   inkscape:version="1.2.2 (b0a8486541, 2022-12-01)"
   xmlns:inkscape="http://www.inkscape.org/namespaces/inkscape"
   xmlns:sodipodi="http://sodipodi.sourceforge.net/DTD/sodipodi-0.dtd"
   xmlns="http://www.w3.org/2000/svg"
   xmlns:svg="http://www.w3.org/2000/svg">
  <defs
     id="defs930" />
  <sodipodi:namedview
     id="namedview928"
     pagecolor="#ffffff"
     bordercolor="#666666"
     borderopacity="1.0"
     inkscape:showpageshadow="2"
     inkscape:pageopacity="0.0"
     inkscape:pagecheckerboard="0"
     inkscape:deskcolor="#d1d1d1"
     showgrid="false"
     inkscape:zoom="0.84590377"
     inkscape:cx="444.495"
     inkscape:cy="206.87932"
     inkscape:window-width="1600"
     inkscape:window-height="841"
     inkscape:window-x="0"
     inkscape:window-y="0"
     inkscape:window-maximized="1"
     inkscape:current-layer="graph-svg" />
  <g
     id="graph-g"
     transform="matrix(1.4968347,0,0,1.4968347,-226.68831,30.867369)">
    <svg
       id="token-0"
       width="70.172539"
       height="70"
       y="100"
       style="overflow:visible"
       x="156.53464"
       version="1.1">
      <line
         x1="35.086269"
         y1="30"
         x2="35.086269"
         y2="40"
         class="pos-edge"
         style="stroke:#484848;stroke-width:3px"
         id="line865" />
      <svg
         x="49.049068"
         width="21.123472"
         height="30"
         style="overflow:visible"
         version="1.1"
         id="svg871">
        <path
           d="m 0,0 h 16.123472 a 5,5 0 0 1 5,5 v 20 a 5,5 0 0 1 -5,5 H 0 Z"
           class="tokenNum"
           style="fill:#afa2ff;stroke:#000000;stroke-width:2px"
           id="path867" />
        <text
           class="tokenNum-label"
           x="50%"
           y="50%"
           text-anchor="middle"
           dominant-baseline="central"
           id="text869">1</text>
      </svg>
      <svg
         width="49.049068"
         height="30"
         id="group-0"
         class="token"
         subId="0"
         style="overflow:visible"
         version="1.1">
        <path
           d="M 49.049068,0 H 5 A 5,5 1 0 0 0,5 v 20 a 5,5 1 0 0 5,5 h 44.049068 z"
           id="form-0"
           attr="form"
           subId="0"
           class="form"
           num="1"
           style="fill:#7fa1ff;stroke:#000000;stroke-width:2px" />
        <text
           x="50%"
           y="50%"
           text-anchor="middle"
           dominant-baseline="central"
           id="text-form-0"
           class="form-label">Мен</text>
      </svg>
      <svg
         x="1.1975317"
         y="40"
         width="67.777481"
         height="30"
         style="overflow:visible"
         version="1.1"
         id="svg878">
        <rect
           width="67.777481"
           height="30"
           id="pos-0"
           class="pos"
           attr="upostag"
           subId="0"
           rx="5"
           ry="5"
           style="fill:#afa2ff;stroke:#000000;stroke-width:2px"
           x="0"
           y="0" />
        <text
           x="50%"
           y="50%"
           class="pos-label"
           id="text-pos-0"
           text-anchor="middle"
           dominant-baseline="central">PRON</text>
      </svg>
    </svg>
    <svg
       id="token-1"
       width="79.44767"
       height="70"
       y="100"
       style="overflow:visible"
       x="300.17255"
       version="1.1">
      <line
         x1="39.723835"
         y1="30"
         x2="39.723835"
         y2="40"
         class="pos-edge"
         style="stroke:#484848;stroke-width:3px"
         id="line881" />
      <svg
         x="58.324196"
         width="21.123472"
         height="30"
         style="overflow:visible"
         version="1.1"
         id="svg887">
        <path
           d="m 0,0 h 16.123472 a 5,5 0 0 1 5,5 v 20 a 5,5 0 0 1 -5,5 H 0 Z"
           class="tokenNum root"
           style="fill:#afa2ff;stroke:#000000;stroke-width:4px"
           id="path883" />
        <text
           class="tokenNum-label root"
           x="50%"
           y="50%"
           text-anchor="middle"
           dominant-baseline="central"
           style="font-weight:700"
           id="text885">2</text>
      </svg>
      <svg
         width="58.324196"
         height="30"
         id="group-1"
         class="token"
         subId="1"
         style="overflow:visible"
         version="1.1">
        <path
           d="M 58.324196,0 H 5 A 5,5 1 0 0 0,5 v 20 a 5,5 1 0 0 5,5 h 53.324196 z"
           id="form-1"
           attr="form"
           subId="1"
           class="form root"
           num="2"
           style="fill:#7fa1ff;stroke:#000000;stroke-width:4px" />
        <text
           x="50%"
           y="50%"
           text-anchor="middle"
           dominant-baseline="central"
           id="text-form-1"
           class="form-label root"
           style="font-weight:700">үйдө</text>
      </svg>
      <svg
         x="5.2839327"
         y="40"
         width="68.879807"
         height="30"
         style="overflow:visible"
         version="1.1"
         id="svg894">
        <rect
           width="68.879807"
           height="30"
           id="pos-1"
           class="pos"
           attr="upostag"
           subId="1"
           rx="5"
           ry="5"
           style="fill:#afa2ff;stroke:#000000;stroke-width:2px"
           x="0"
           y="0" />
        <text
           x="50%"
           y="50%"
           class="pos-label"
           id="text-pos-1"
           text-anchor="middle"
           dominant-baseline="central">NOUN</text>
      </svg>
    </svg>
    <svg
       id="token-2"
       width="119.72154"
       height="70"
       y="100"
       style="overflow:visible"
       x="409.62021"
       version="1.1">
      <line
         x1="59.860771"
         y1="30"
         x2="59.860771"
         y2="40"
         class="pos-edge"
         style="stroke:#484848;stroke-width:3px"
         id="line897" />
      <svg
         x="98.598068"
         width="21.123472"
         height="30"
         style="overflow:visible"
         version="1.1"
         id="svg903">
        <path
           d="m 0,0 h 16.123472 a 5,5 0 0 1 5,5 v 20 a 5,5 0 0 1 -5,5 H 0 Z"
           class="tokenNum"
           style="fill:#afa2ff;stroke:#000000;stroke-width:2px"
           id="path899" />
        <text
           class="tokenNum-label"
           x="50%"
           y="50%"
           text-anchor="middle"
           dominant-baseline="central"
           id="text901">3</text>
      </svg>
      <svg
         width="98.598068"
         height="30"
         id="group-2"
         class="token"
         subId="2"
         style="overflow:visible"
         version="1.1">
        <path
           d="M 98.598068,0 H 5 A 5,5 1 0 0 0,5 v 20 a 5,5 1 0 0 5,5 h 93.598068 z"
           id="form-2"
           attr="form"
           subId="2"
           class="form"
           num="3"
           style="fill:#7fa1ff;stroke:#000000;stroke-width:2px" />
        <text
           x="50%"
           y="50%"
           text-anchor="middle"
           dominant-baseline="central"
           id="text-form-2"
           class="form-label">болчумун</text>
      </svg>
      <svg
         x="34.30072"
         y="40"
         width="51.120102"
         height="30"
         style="overflow:visible"
         version="1.1"
         id="svg910">
        <rect
           width="51.120102"
           height="30"
           id="pos-2"
           class="pos"
           attr="upostag"
           subId="2"
           rx="5"
           ry="5"
           style="fill:#afa2ff;stroke:#000000;stroke-width:2px"
           x="0"
           y="0" />
        <text
           x="50%"
           y="50%"
           class="pos-label"
           id="text-pos-2"
           text-anchor="middle"
           dominant-baseline="central">AUX</text>
      </svg>
    </svg>
    <defs
       id="defs916">
      <marker
         id="end"
         viewBox="0 -5 10 10"
         refX="2"
         refY="2"
         markerWidth="15"
         markerHeight="15"
         orient="auto"
         style="fill:#ffffff">
        <path
           d="M 1,1 3,2 1,3 Z"
           id="path913" />
      </marker>
    </defs>
    <path
       class="dependency"
       attr="deprel"
       style="opacity:0.766;fill:none;stroke:#ffffff;stroke-width:4px"
       marker-end="url(#end)"
       d="M 324.5,100 319.25,67.5 C 314,35 306.65,35 299.3,35 v 0 h -5.26732 m -72.56536,0 H 216.2 c -7.35,0 -14.7,0 -19.95,32.5 L 191,94"
       id="dep_0_1"
       num="4" />
    <path
       class="dependency"
       attr="deprel"
       style="opacity:0.766;fill:none;stroke:#ffffff;stroke-width:4px"
       marker-end="url(#end)"
       d="m 354.5,100 5.25,-32.5 C 365,35 372.35,35 379.7,35 v 0 h 3.30041 m 56.99918,0 H 443.3 c 7.35,0 14.7,0 19.95,32.5 L 468.5,94"
       id="dep_2_1"
       num="5" />
    <line
       x1="339.5"
       y1="2.5"
       x2="339.5"
       y2="93"
       class="root-deprel"
       marker-end="url(#end)"
       style="opacity:0.766;stroke:#ffffff;stroke-width:4px"
       id="line920" />
    <text
       id="text-dep_0_1"
       class="deprel-label"
       transform="translate(257.75,35)"
       y="-1"
       text-anchor="middle"
		 style="fill:#ffffff"
       dominant-baseline="central">⊲nsubj</text>
    <text
       id="text-dep_2_1"
       class="deprel-label"
       transform="translate(411.5,35)"
       y="-1"
       text-anchor="middle"
		 style="fill:#ffffff"
       dominant-baseline="central">cop⊳</text>
    <text
       x="339.5"
       y="-8.5"
       class="root-deprel-label"
       text-anchor="middle"
       dominant-baseline="central"
		 style="fill:#ffffff"
       id="text924">ROOT</text>
  </g>
</svg>
