<?xml version="1.0" encoding="UTF-8" standalone="no"?>
<svg
   width="535"
   height="390"
   id="graph-svg"
   style="font-size:20px;font-family:Arial"
   version="1.1"
   sodipodi:docname="graph - Ben doktor oldum.svg"
   inkscape:version="1.2.2 (b0a8486541, 2022-12-01)"
   xmlns:inkscape="http://www.inkscape.org/namespaces/inkscape"
   xmlns:sodipodi="http://sodipodi.sourceforge.net/DTD/sodipodi-0.dtd"
   xmlns="http://www.w3.org/2000/svg"
   xmlns:svg="http://www.w3.org/2000/svg">
  <defs
     id="defs746" />
  <sodipodi:namedview
     id="namedview744"
     pagecolor="#ffffff"
     bordercolor="#666666"
     borderopacity="1.0"
     inkscape:showpageshadow="2"
     inkscape:pageopacity="0.0"
     inkscape:pagecheckerboard="0"
     inkscape:deskcolor="#d1d1d1"
     showgrid="false"
     inkscape:zoom="0.84590377"
     inkscape:cx="453.95234"
     inkscape:cy="219.88317"
     inkscape:window-width="1600"
     inkscape:window-height="841"
     inkscape:window-x="0"
     inkscape:window-y="0"
     inkscape:window-maximized="1"
     inkscape:current-layer="graph-svg" />
  <g
     id="graph-g"
     transform="matrix(1.4968347,0,0,1.4968347,-231.25431,127.90743)">
    <svg
       id="token-0"
       width="66.709679"
       height="70"
       y="100"
       style="overflow:visible"
       x="160.44458"
       version="1.1">
      <line
         x1="33.354839"
         y1="30"
         x2="33.354839"
         y2="40"
         class="pos-edge"
         style="stroke:#484848;stroke-width:3px"
         id="line681" />
      <svg
         x="45.586205"
         width="21.123472"
         height="30"
         style="overflow:visible"
         version="1.1"
         id="svg687">
        <path
           d="m 0,0 h 16.123472 a 5,5 0 0 1 5,5 v 20 a 5,5 0 0 1 -5,5 H 0 Z"
           class="tokenNum"
           style="fill:#afa2ff;stroke:#000000;stroke-width:2px"
           id="path683" />
        <text
           class="tokenNum-label"
           x="50%"
           y="50%"
           text-anchor="middle"
           dominant-baseline="central"
           id="text685">1</text>
      </svg>
      <svg
         width="45.586205"
         height="30"
         id="group-0"
         class="token"
         subId="0"
         style="overflow:visible"
         version="1.1">
        <path
           d="M 45.586205,0 H 5 A 5,5 1 0 0 0,5 v 20 a 5,5 1 0 0 5,5 h 40.586205 z"
           id="form-0"
           attr="form"
           subId="0"
           class="form"
           num="1"
           style="fill:#7fa1ff;stroke:#000000;stroke-width:2px" />
        <text
           x="50%"
           y="50%"
           text-anchor="middle"
           dominant-baseline="central"
           id="text-form-0"
           class="form-label">Ben</text>
      </svg>
      <svg
         x="-0.53390026"
         y="40"
         width="67.777481"
         height="30"
         style="overflow:visible"
         version="1.1"
         id="svg694">
        <rect
           width="67.777481"
           height="30"
           id="pos-0"
           class="pos"
           attr="upostag"
           subId="0"
           rx="5"
           ry="5"
           style="fill:#afa2ff;stroke:#000000;stroke-width:2px"
           x="0"
           y="0" />
        <text
           x="50%"
           y="50%"
           class="pos-label"
           id="text-pos-0"
           text-anchor="middle"
           dominant-baseline="central">PRON</text>
      </svg>
    </svg>
    <svg
       id="token-1"
       width="86.707428"
       height="70"
       y="100"
       style="overflow:visible"
       x="257.44458"
       version="1.1">
      <line
         x1="43.353714"
         y1="30"
         x2="43.353714"
         y2="40"
         class="pos-edge"
         style="stroke:#484848;stroke-width:3px"
         id="line697" />
      <svg
         x="65.583954"
         width="21.123472"
         height="30"
         style="overflow:visible"
         version="1.1"
         id="svg703">
        <path
           d="m 0,0 h 16.123472 a 5,5 0 0 1 5,5 v 20 a 5,5 0 0 1 -5,5 H 0 Z"
           class="tokenNum"
           style="fill:#afa2ff;stroke:#000000;stroke-width:2px"
           id="path699" />
        <text
           class="tokenNum-label"
           x="50%"
           y="50%"
           text-anchor="middle"
           dominant-baseline="central"
           id="text701">2</text>
      </svg>
      <svg
         width="65.583954"
         height="30"
         id="group-1"
         class="token"
         subId="1"
         style="overflow:visible"
         version="1.1">
        <path
           d="M 65.583958,0 H 5 A 5,5 1 0 0 0,5 v 20 a 5,5 1 0 0 5,5 h 60.583958 z"
           id="form-1"
           attr="form"
           subId="1"
           class="form"
           num="2"
           style="fill:#7fa1ff;stroke:#000000;stroke-width:2px" />
        <text
           x="50%"
           y="50%"
           text-anchor="middle"
           dominant-baseline="central"
           id="text-form-1"
           class="form-label">doktor</text>
      </svg>
      <svg
         x="8.9138136"
         y="40"
         width="68.879807"
         height="30"
         style="overflow:visible"
         version="1.1"
         id="svg710">
        <rect
           width="68.879807"
           height="30"
           id="pos-1"
           class="pos"
           attr="upostag"
           subId="1"
           rx="5"
           ry="5"
           style="fill:#afa2ff;stroke:#000000;stroke-width:2px"
           x="0"
           y="0" />
        <text
           x="50%"
           y="50%"
           class="pos-label"
           id="text-pos-1"
           text-anchor="middle"
           dominant-baseline="central">NOUN</text>
      </svg>
    </svg>
    <svg
       id="token-2"
       width="91.105598"
       height="70"
       y="100"
       style="overflow:visible"
       x="414.48489"
       version="1.1">
      <line
         x1="45.552799"
         y1="30"
         x2="45.552799"
         y2="40"
         class="pos-edge"
         style="stroke:#484848;stroke-width:3px"
         id="line713" />
      <svg
         x="69.982132"
         width="21.123472"
         height="30"
         style="overflow:visible"
         version="1.1"
         id="svg719">
        <path
           d="m 0,0 h 16.123472 a 5,5 0 0 1 5,5 v 20 a 5,5 0 0 1 -5,5 H 0 Z"
           class="tokenNum root"
           style="fill:#afa2ff;stroke:#000000;stroke-width:4px"
           id="path715" />
        <text
           class="tokenNum-label root"
           x="50%"
           y="50%"
           text-anchor="middle"
           dominant-baseline="central"
           style="font-weight:700"
           id="text717">3</text>
      </svg>
      <svg
         width="69.982132"
         height="30"
         id="group-2"
         class="token"
         subId="2"
         style="overflow:visible"
         version="1.1">
        <path
           d="M 69.982128,0 H 5 A 5,5 1 0 0 0,5 v 20 a 5,5 1 0 0 5,5 h 64.982128 z"
           id="form-2"
           attr="form"
           subId="2"
           class="form root"
           num="3"
           style="fill:#7fa1ff;stroke:#000000;stroke-width:4px" />
        <text
           x="50%"
           y="50%"
           text-anchor="middle"
           dominant-baseline="central"
           id="text-form-2"
           class="form-label root"
           style="font-weight:700">oldum</text>
      </svg>
      <svg
         x="13.323119"
         y="40"
         width="64.459366"
         height="30"
         style="overflow:visible"
         version="1.1"
         id="svg726">
        <rect
           width="64.459366"
           height="30"
           id="pos-2"
           class="pos"
           attr="upostag"
           subId="2"
           rx="5"
           ry="5"
           style="fill:#afa2ff;stroke:#000000;stroke-width:2px"
           x="0"
           y="0" />
        <text
           x="50%"
           y="50%"
           class="pos-label"
           id="text-pos-2"
           text-anchor="middle"
           dominant-baseline="central">VERB</text>
      </svg>
    </svg>
    <defs
       id="defs732">
      <marker
         id="end"
         viewBox="0 -5 10 10"
         refX="2"
         refY="2"
         markerWidth="15"
         markerHeight="15"
         orient="auto"
         style="fill:#ffffff">
        <path
           d="M 1,1 3,2 1,3 Z"
           id="path729" />
      </marker>
    </defs>
    <path
       class="dependency"
       attr="deprel"
       style="opacity:0.766;fill:none;stroke:#ffffff;stroke-width:4px"
       marker-end="url(#end)"
       d="M 444.5,100 434,35 c -10.5,-65 -25.2,-65 -39.9,-65 v 0 h -39.06732 m -72.56536,0 H 243.4 c -14.7,0 -29.4,0 -39.9,65 L 193,94"
       id="dep_0_2"
       num="4" />
    <path
       class="dependency"
       attr="deprel"
       style="opacity:0.766;fill:none;stroke:#ffffff;stroke-width:4px"
       marker-end="url(#end)"
       d="M 444.5,100 439.25,67.5 C 434,35 426.65,35 419.3,35 v 0 h -5.22229 m -83.65542,0 H 325.2 c -7.35,0 -14.7,0 -19.95,32.5 L 300,94"
       id="dep_1_2"
       num="5" />
    <line
       x1="459.5"
       y1="-62.5"
       x2="459.5"
       y2="93"
       class="root-deprel"
       marker-end="url(#end)"
       style="opacity:0.766;stroke:#ffffff;stroke-width:4px"
       id="line736" />
    <text
       id="text-dep_0_2"
       class="deprel-label"
       transform="translate(318.75,-30)"
       y="-1"
       text-anchor="middle"
		 style="fill:#ffffff"
       dominant-baseline="central">⊲nsubj</text>
    <text
       id="text-dep_1_2"
       class="deprel-label"
       transform="translate(372.25,35)"
       y="-1"
       text-anchor="middle"
		 style="fill:#ffffff"
       dominant-baseline="central">⊲xcomp</text>
    <text
       x="459.5"
       y="-73.5"
       class="root-deprel-label"
       text-anchor="middle"
       dominant-baseline="central"
		 style="fill:#ffffff"
       id="text740">ROOT</text>
  </g>
</svg>
