<?xml version="1.0" encoding="UTF-8" standalone="no"?>
<svg
   width="450"
   height="260"
   id="graph-svg"
   style="font-size:20px;font-family:Arial"
   version="1.1"
   sodipodi:docname="graph - Ben evdeyim.svg"
   inkscape:version="1.2.2 (b0a8486541, 2022-12-01)"
   xmlns:inkscape="http://www.inkscape.org/namespaces/inkscape"
   xmlns:sodipodi="http://sodipodi.sourceforge.net/DTD/sodipodi-0.dtd"
   xmlns="http://www.w3.org/2000/svg"
   xmlns:svg="http://www.w3.org/2000/svg">
  <defs
     id="defs75" />
  <sodipodi:namedview
     id="namedview73"
     pagecolor="#ffffff"
     bordercolor="#666666"
     borderopacity="1.0"
     inkscape:showpageshadow="2"
     inkscape:pageopacity="0.0"
     inkscape:pagecheckerboard="0"
     inkscape:deskcolor="#d1d1d1"
     showgrid="false"
     inkscape:zoom="0.84590377"
     inkscape:cx="464.59185"
     inkscape:cy="91.026902"
     inkscape:window-width="1600"
     inkscape:window-height="841"
     inkscape:window-x="0"
     inkscape:window-y="0"
     inkscape:window-maximized="1"
     inkscape:current-layer="graph-svg" />
  <g
     id="graph-g"
     transform="matrix(1.1911667,0,0,1.1911667,-174.73709,26.289869)">
    <rect
       width="241"
       height="110"
       x="277"
       y="80"
       class="multiword"
       subId="0"
       rx="5"
       ry="5"
       style="fill:#bcd2ff;stroke:#000000;stroke-width:2px"
       id="rect2" />
    <svg
       id="token-0"
       width="66.70491"
       height="70"
       y="100"
       style="overflow:visible"
       x="154.04228"
       version="1.1">
      <line
         x1="33.352455"
         y1="30"
         x2="33.352455"
         y2="40"
         class="pos-edge"
         style="stroke:#484848;stroke-width:3px"
         id="line4" />
      <svg
         x="45.58136"
         width="21.123547"
         height="30"
         style="overflow:visible"
         version="1.1"
         id="svg10">
        <path
           d="m 0,0 h 16.123548 a 5,5 0 0 1 5,5 v 20 a 5,5 0 0 1 -5,5 H 0 Z"
           class="tokenNum"
           style="fill:#afa2ff;stroke:#000000;stroke-width:2px"
           id="path6" />
        <text
           class="tokenNum-label"
           x="50%"
           y="50%"
           text-anchor="middle"
           dominant-baseline="central"
           id="text8">1</text>
      </svg>
      <svg
         width="45.58136"
         height="30"
         id="group-0"
         class="token"
         subId="0"
         style="overflow:visible"
         version="1.1">
        <path
           d="M 45.58136,0 H 5 A 5,5 1 0 0 0,5 v 20 a 5,5 1 0 0 5,5 h 40.58136 z"
           id="form-0"
           attr="form"
           subId="0"
           class="form"
           num="1"
           style="fill:#7fa1ff;stroke:#000000;stroke-width:2px" />
        <text
           x="50%"
           y="50%"
           text-anchor="middle"
           dominant-baseline="central"
           id="text-form-0"
           class="form-label">Ben</text>
      </svg>
      <svg
         x="-0.52679396"
         y="40"
         width="67.758499"
         height="30"
         style="overflow:visible"
         version="1.1"
         id="svg17">
        <rect
           width="67.758499"
           height="30"
           id="pos-0"
           class="pos"
           attr="upostag"
           subId="0"
           rx="5"
           ry="5"
           style="fill:#afa2ff;stroke:#000000;stroke-width:2px"
           x="0"
           y="0" />
        <text
           x="50%"
           y="50%"
           class="pos-label"
           id="text-pos-0"
           text-anchor="middle"
           dominant-baseline="central">PRON</text>
      </svg>
    </svg>
    <svg
       id="token-1"
       width="76.709106"
       height="70"
       y="100"
       style="overflow:visible"
       x="297.75848"
       version="1.1">
      <line
         x1="38.354553"
         y1="30"
         x2="38.354553"
         y2="40"
         class="pos-edge"
         style="stroke:#484848;stroke-width:3px"
         id="line20" />
      <svg
         x="55.585556"
         width="21.123547"
         height="30"
         style="overflow:visible"
         version="1.1"
         id="svg26">
        <path
           d="m 0,0 h 16.123548 a 5,5 0 0 1 5,5 v 20 a 5,5 0 0 1 -5,5 H 0 Z"
           class="tokenNum root"
           style="fill:#afa2ff;stroke:#000000;stroke-width:4px"
           id="path22" />
        <text
           class="tokenNum-label root"
           x="50%"
           y="50%"
           text-anchor="middle"
           dominant-baseline="central"
           style="font-weight:700"
           id="text24">3</text>
      </svg>
      <svg
         width="55.585556"
         height="30"
         id="group-1"
         class="token"
         subId="1"
         style="overflow:visible"
         version="1.1">
        <path
           d="M 55.585556,0 H 5 A 5,5 1 0 0 0,5 v 20 a 5,5 1 0 0 5,5 h 50.585556 z"
           id="form-1"
           attr="form"
           subId="1"
           class="form root"
           num="2"
           style="fill:#7fa1ff;stroke:#000000;stroke-width:4px" />
        <text
           x="50%"
           y="50%"
           text-anchor="middle"
           dominant-baseline="central"
           id="text-form-1"
           class="form-label root"
           style="font-weight:700">evde</text>
      </svg>
      <svg
         x="3.9226251"
         y="40"
         width="68.863853"
         height="30"
         style="overflow:visible"
         version="1.1"
         id="svg33">
        <rect
           width="68.863853"
           height="30"
           id="pos-1"
           class="pos"
           attr="upostag"
           subId="1"
           rx="5"
           ry="5"
           style="fill:#afa2ff;stroke:#000000;stroke-width:2px"
           x="0"
           y="0" />
        <text
           x="50%"
           y="50%"
           class="pos-label"
           id="text-pos-1"
           text-anchor="middle"
           dominant-baseline="central">NOUN</text>
      </svg>
    </svg>
    <svg
       id="token-2"
       width="62.19952"
       height="70"
       y="100"
       style="overflow:visible"
       x="436.39874"
       version="1.1">
      <line
         x1="31.09976"
         y1="30"
         x2="31.09976"
         y2="40"
         class="pos-edge"
         style="stroke:#484848;stroke-width:3px"
         id="line36" />
      <svg
         x="41.075974"
         width="21.123547"
         height="30"
         style="overflow:visible"
         version="1.1"
         id="svg42">
        <path
           d="m 0,0 h 16.123548 a 5,5 0 0 1 5,5 v 20 a 5,5 0 0 1 -5,5 H 0 Z"
           class="tokenNum"
           style="fill:#afa2ff;stroke:#000000;stroke-width:2px"
           id="path38" />
        <text
           class="tokenNum-label"
           x="50%"
           y="50%"
           text-anchor="middle"
           dominant-baseline="central"
           id="text40">4</text>
      </svg>
      <svg
         width="41.075974"
         height="30"
         id="group-2"
         class="token"
         subId="2"
         style="overflow:visible"
         version="1.1">
        <path
           d="M 41.075974,0 H 5 A 5,5 1 0 0 0,5 v 20 a 5,5 1 0 0 5,5 h 36.075974 z"
           id="form-2"
           attr="form"
           subId="2"
           class="form"
           num="3"
           style="fill:#7fa1ff;stroke:#000000;stroke-width:2px" />
        <text
           x="50%"
           y="50%"
           text-anchor="middle"
           dominant-baseline="central"
           id="text-form-2"
           class="form-label">yim</text>
      </svg>
      <svg
         x="5.5456834"
         y="40"
         width="51.108154"
         height="30"
         style="overflow:visible"
         version="1.1"
         id="svg49">
        <rect
           width="51.108154"
           height="30"
           id="pos-2"
           class="pos"
           attr="upostag"
           subId="2"
           rx="5"
           ry="5"
           style="fill:#afa2ff;stroke:#000000;stroke-width:2px"
           x="0"
           y="0" />
        <text
           x="50%"
           y="50%"
           class="pos-label"
           id="text-pos-2"
           text-anchor="middle"
           dominant-baseline="central">AUX</text>
      </svg>
    </svg>
    <defs
       id="defs55">
      <marker
         id="end"
         viewBox="0 -5 10 10"
         refX="2"
         refY="2"
         markerWidth="15"
         markerHeight="15"
         orient="auto"
         style="fill:#ffffff; stroke:#000000; stroke-width:0.2pt;">
        <path
           d="M 1,1 3,2 1,3 Z"
           id="path52" />
      </marker>
    </defs>
    <svg
       x="348.62146"
       y="50"
       width="97.757095"
       height="30"
       style="overflow:visible"
       version="1.1"
       id="svg61">
      <rect
         width="97.757095"
         height="30"
         class="multiword-label"
         style="fill:#7fa1ff;stroke:#000000;stroke-width:2px"
         id="rect57"
         x="0"
         y="0" />
      <text
         x="50%"
         y="50%"
         text-anchor="middle"
         dominant-baseline="central"
         id="text59">evdeyim ₂</text>
    </svg>
    <path
       class="dependency"
       attr="deprel"
       style="opacity:0.766;fill:none;stroke:#ffffff;stroke-width:4px"
       marker-end="url(#end)"
       d="M 320,100 314.75,67.5 C 309.5,35 302.15,35 294.8,35 v 0 h -5.02114 m -72.55772,0 H 212.2 c -7.35,0 -14.7,0 -19.95,32.5 L 187,94"
       id="dep_0_1"
       num="4" />
    <path
       class="dependency"
       attr="deprel"
       style="opacity:0.766;fill:none;stroke:#ffffff;stroke-width:4px"
       marker-end="url(#end)"
       d="m 350,100 5.25,-32.5 C 360.5,35 367.85,35 375.2,35 v 0 h 4.80063 m 56.99874,0 H 441.8 c 7.35,0 14.7,0 19.95,32.5 L 467,94"
       id="dep_2_1"
       num="5" />
    <line
       x1="335"
       y1="2.5"
       x2="335"
       y2="93"
       class="root-deprel"
       marker-end="url(#end)"
       style="opacity:0.766;stroke:#ffffff;stroke-width:4px"
       id="line65" />
    <text
       id="text-dep_0_1"
       class="deprel-label"
       transform="translate(253.5,35)"
       y="-1"
       text-anchor="middle"
		 style="fill:#ffffff;"
       dominant-baseline="central">⊲nsubj</text>
    <text
       id="text-dep_2_1"
       class="deprel-label"
       transform="translate(408.5,35)"
       y="-1"
       text-anchor="middle"
		 style="fill:#ffffff;"
       dominant-baseline="central">cop⊳</text>
    <text
       x="335"
       y="-8.5"
       class="root-deprel-label"
       text-anchor="middle"
       dominant-baseline="central"
		 style="fill:#ffffff;"
       id="text69">ROOT</text>
  </g>
</svg>
