<svg xmlns="http://www.w3.org/2000/svg" width="1538" height="446" id="graph-svg" style="background: white; font-family: Arial; font-size: 20px;"><g id="graph-g" transform="translate(148.21921618931503,152.19330648887194) scale(1.1911667423856092)"><svg id="token-0" width="67.44647693634033" height="70" y="100" style="overflow: visible; cursor: pointer;" x="165.04228744506827"><line x1="33.723238468170166" y1="30" x2="33.723238468170166" y2="40" class="pos-edge" style="stroke: rgb(72, 72, 72); stroke-width: 3px;"/><svg x="46.32292938232422" width="21.123547554016113" height="30" style="overflow: visible;"><path d="M0,0h16.123547554016113a5,5 0 0 1 5,5v20a5,5 0 0 1 -5,5h-16.123547554016113z" class="tokenNum" style="fill: rgb(175, 162, 255); stroke: rgb(0, 0, 0); stroke-width: 2px;"/><text class="tokenNum-label" x="50%" y="50%" text-anchor="middle" dominant-baseline="central">1</text></svg><svg width="46.32292938232422" height="30" id="group-0" class="token" subId="0" style="overflow: visible;"><path d="M46.32292938232422,0h-41.32292938232422a5,5 1 0 0 -5,5v20a5,5 1 0 0 5,5h41.32292938232422z" id="form-0" attr="form" subId="0" class="form" num="1" style="fill: rgb(127, 161, 255); stroke: rgb(0, 0, 0); stroke-width: 2px;"/><text x="50%" y="50%" text-anchor="middle" dominant-baseline="central" id="text-form-0" class="form-label">Эпӗ</text></svg><svg x="-0.15600919723510742" y="40" width="67.75849533081055" height="30" style="overflow: visible;"><rect width="67.75849533081055" height="30" id="pos-0" class="pos" attr="upostag" subId="0" rx="5" ry="5" style="fill: rgb(175, 162, 255); stroke: rgb(0, 0, 0); stroke-width: 2px;"/><text x="50%" y="50%" class="pos-label" id="text-pos-0" text-anchor="middle" dominant-baseline="central">PRON</text></svg></svg><svg id="token-1" width="99.40394306182861" height="70" y="100" style="overflow: visible; cursor: pointer;" x="297.75849533081055"><line x1="49.70197153091431" y1="30" x2="49.70197153091431" y2="40" class="pos-edge" style="stroke: rgb(72, 72, 72); stroke-width: 3px;"/><svg x="78.2803955078125" width="21.123547554016113" height="30" style="overflow: visible;"><path d="M0,0h16.123547554016113a5,5 0 0 1 5,5v20a5,5 0 0 1 -5,5h-16.123547554016113z" class="tokenNum root" style="fill: rgb(175, 162, 255); stroke: rgb(0, 0, 0); stroke-width: 4px;"/><text class="tokenNum-label root" x="50%" y="50%" text-anchor="middle" dominant-baseline="central" style="font-weight: 700;">2</text></svg><svg width="78.2803955078125" height="30" id="group-1" class="token" subId="1" style="overflow: visible;"><path d="M78.2803955078125,0h-73.2803955078125a5,5 1 0 0 -5,5v20a5,5 1 0 0 5,5h73.2803955078125z" id="form-1" attr="form" subId="1" class="form root" num="2" style="fill: rgb(127, 161, 255); stroke: rgb(0, 0, 0); stroke-width: 4px;"/><text x="50%" y="50%" text-anchor="middle" dominant-baseline="central" id="text-form-1" class="form-label root" style="font-weight: 700;">пӳртре</text></svg><svg x="15.270044803619385" y="40" width="68.86385345458984" height="30" style="overflow: visible;"><rect width="68.86385345458984" height="30" id="pos-1" class="pos" attr="upostag" subId="1" rx="5" ry="5" style="fill: rgb(175, 162, 255); stroke: rgb(0, 0, 0); stroke-width: 2px;"/><text x="50%" y="50%" class="pos-label" id="text-pos-1" text-anchor="middle" dominant-baseline="central">NOUN</text></svg></svg><defs><marker id="end" viewBox="0 -5 10 10" refX="2" refY="2" markerWidth="15" markerHeight="15" orient="auto" style="fill: rgb(17, 17, 17);"><path d="M 1 1 L 3 2 L 1 3 Z"/></marker></defs><path class="dependency" attr="deprel" style="stroke-width: 4px; fill: none; stroke: rgb(17, 17, 17); opacity: 0.766;" marker-end="url(#end)" d="M 331.5,100 L 326.25,67.5 C 321,35 313.65,35 306.29999999999995,35 L 306.29999999999995,35 301.2788562774658,35M 228.72114372253418,35 L 223.7,35 C216.35,35 209,35 203.75,67.5 L198.5,94" id="dep_0_1" num="3"/><line x1="346.5" y1="2.5" x2="346.5" y2="93" class="root-deprel" marker-end="url(#end)" style="stroke: rgb(17, 17, 17); opacity: 0.766; stroke-width: 4px;"/><text id="text-dep_0_1" class="deprel-label" style="cursor: pointer; text-shadow: rgb(255, 255, 255) 1px 1px 5px;" transform="translate(265,35)" y="-1" text-anchor="middle" dominant-baseline="central">⊲nsubj</text><text x="346.5" y="-8.5" class="root-deprel-label" text-anchor="middle" dominant-baseline="central" style="text-shadow: rgb(255, 255, 255) 1px 1px 5px;">ROOT</text></g></svg>