<?xml version="1.0" encoding="UTF-8" standalone="no"?>
<svg
   width="435"
   height="235"
   id="graph-svg"
   style="font-size:20px;font-family:Arial"
   version="1.1"
   sodipodi:docname="graph - Men úyde edim.svg"
   inkscape:version="1.2.2 (b0a8486541, 2022-12-01)"
   xmlns:inkscape="http://www.inkscape.org/namespaces/inkscape"
   xmlns:sodipodi="http://sodipodi.sourceforge.net/DTD/sodipodi-0.dtd"
   xmlns="http://www.w3.org/2000/svg"
   xmlns:svg="http://www.w3.org/2000/svg">
  <defs
     id="defs67" />
  <sodipodi:namedview
     id="namedview65"
     pagecolor="#ffffff"
     bordercolor="#666666"
     borderopacity="1.0"
     inkscape:showpageshadow="2"
     inkscape:pageopacity="0.0"
     inkscape:pagecheckerboard="0"
     inkscape:deskcolor="#d1d1d1"
     showgrid="false"
     inkscape:zoom="0.84590377"
     inkscape:cx="464.59185"
     inkscape:cy="91.026902"
     inkscape:window-width="1600"
     inkscape:window-height="841"
     inkscape:window-x="0"
     inkscape:window-y="0"
     inkscape:window-maximized="1"
     inkscape:current-layer="graph-svg" />
  <g
     id="graph-g"
     transform="matrix(1.1911667,0,0,1.1911667,-179.76101,24.367475)">
    <svg
       id="token-0"
       width="70.020988"
       height="70"
       y="100"
       style="overflow:visible"
       x="155.54228"
       version="1.1">
      <line
         x1="35.010494"
         y1="30"
         x2="35.010494"
         y2="40"
         class="pos-edge"
         style="stroke:#484848;stroke-width:3px"
         id="line2" />
      <svg
         x="48.897438"
         width="21.123547"
         height="30"
         style="overflow:visible"
         version="1.1"
         id="svg8">
        <path
           d="m 0,0 h 16.123548 a 5,5 0 0 1 5,5 v 20 a 5,5 0 0 1 -5,5 H 0 Z"
           class="tokenNum"
           style="fill:#afa2ff;stroke:#000000;stroke-width:2px"
           id="path4" />
        <text
           class="tokenNum-label"
           x="50%"
           y="50%"
           text-anchor="middle"
           dominant-baseline="central"
           id="text6">1</text>
      </svg>
      <svg
         width="48.897438"
         height="30"
         id="group-0"
         class="token"
         subId="0"
         style="overflow:visible"
         version="1.1">
        <path
           d="M 48.897438,0 H 5 A 5,5 1 0 0 0,5 v 20 a 5,5 1 0 0 5,5 h 43.897438 z"
           id="form-0"
           attr="form"
           subId="0"
           class="form"
           num="1"
           style="fill:#7fa1ff;stroke:#000000;stroke-width:2px" />
        <text
           x="50%"
           y="50%"
           text-anchor="middle"
           dominant-baseline="central"
           id="text-form-0"
           class="form-label">Men</text>
      </svg>
      <svg
         x="1.1312451"
         y="40"
         width="67.758499"
         height="30"
         style="overflow:visible"
         version="1.1"
         id="svg15">
        <rect
           width="67.758499"
           height="30"
           id="pos-0"
           class="pos"
           attr="upostag"
           subId="0"
           rx="5"
           ry="5"
           style="fill:#afa2ff;stroke:#000000;stroke-width:2px"
           x="0"
           y="0" />
        <text
           x="50%"
           y="50%"
           class="pos-label"
           id="text-pos-0"
           text-anchor="middle"
           dominant-baseline="central">PRON</text>
      </svg>
    </svg>
    <svg
       id="token-1"
       width="77.800476"
       height="70"
       y="100"
       style="overflow:visible"
       x="300.021"
       version="1.1">
      <line
         x1="38.900238"
         y1="30"
         x2="38.900238"
         y2="40"
         class="pos-edge"
         style="stroke:#484848;stroke-width:3px"
         id="line18" />
      <svg
         x="56.676926"
         width="21.123547"
         height="30"
         style="overflow:visible"
         version="1.1"
         id="svg24">
        <path
           d="m 0,0 h 16.123548 a 5,5 0 0 1 5,5 v 20 a 5,5 0 0 1 -5,5 H 0 Z"
           class="tokenNum root"
           style="fill:#afa2ff;stroke:#000000;stroke-width:4px"
           id="path20" />
        <text
           class="tokenNum-label root"
           x="50%"
           y="50%"
           text-anchor="middle"
           dominant-baseline="central"
           style="font-weight:700"
           id="text22">2</text>
      </svg>
      <svg
         width="56.676926"
         height="30"
         id="group-1"
         class="token"
         subId="1"
         style="overflow:visible"
         version="1.1">
        <path
           d="M 56.676926,0 H 5 A 5,5 1 0 0 0,5 v 20 a 5,5 1 0 0 5,5 h 51.676926 z"
           id="form-1"
           attr="form"
           subId="1"
           class="form root"
           num="2"
           style="fill:#7fa1ff;stroke:#000000;stroke-width:4px" />
        <text
           x="50%"
           y="50%"
           text-anchor="middle"
           dominant-baseline="central"
           id="text-form-1"
           class="form-label root"
           style="font-weight:700">úyde</text>
      </svg>
      <svg
         x="4.4683099"
         y="40"
         width="68.863853"
         height="30"
         style="overflow:visible"
         version="1.1"
         id="svg31">
        <rect
           width="68.863853"
           height="30"
           id="pos-1"
           class="pos"
           attr="upostag"
           subId="1"
           rx="5"
           ry="5"
           style="fill:#afa2ff;stroke:#000000;stroke-width:2px"
           x="0"
           y="0" />
        <text
           x="50%"
           y="50%"
           class="pos-label"
           id="text-pos-1"
           text-anchor="middle"
           dominant-baseline="central">NOUN</text>
      </svg>
    </svg>
    <svg
       id="token-2"
       width="74.456413"
       height="70"
       y="100"
       style="overflow:visible"
       x="433.89874"
       version="1.1">
      <line
         x1="37.228207"
         y1="30"
         x2="37.228207"
         y2="40"
         class="pos-edge"
         style="stroke:#484848;stroke-width:3px"
         id="line34" />
      <svg
         x="53.332863"
         width="21.123547"
         height="30"
         style="overflow:visible"
         version="1.1"
         id="svg40">
        <path
           d="m 0,0 h 16.123548 a 5,5 0 0 1 5,5 v 20 a 5,5 0 0 1 -5,5 H 0 Z"
           class="tokenNum"
           style="fill:#afa2ff;stroke:#000000;stroke-width:2px"
           id="path36" />
        <text
           class="tokenNum-label"
           x="50%"
           y="50%"
           text-anchor="middle"
           dominant-baseline="central"
           id="text38">3</text>
      </svg>
      <svg
         width="53.332863"
         height="30"
         id="group-2"
         class="token"
         subId="2"
         style="overflow:visible"
         version="1.1">
        <path
           d="M 53.332863,0 H 5 A 5,5 1 0 0 0,5 v 20 a 5,5 1 0 0 5,5 h 48.332863 z"
           id="form-2"
           attr="form"
           subId="2"
           class="form"
           num="3"
           style="fill:#7fa1ff;stroke:#000000;stroke-width:2px" />
        <text
           x="50%"
           y="50%"
           text-anchor="middle"
           dominant-baseline="central"
           id="text-form-2"
           class="form-label">edim</text>
      </svg>
      <svg
         x="11.674128"
         y="40"
         width="51.108154"
         height="30"
         style="overflow:visible"
         version="1.1"
         id="svg47">
        <rect
           width="51.108154"
           height="30"
           id="pos-2"
           class="pos"
           attr="upostag"
           subId="2"
           rx="5"
           ry="5"
           style="fill:#afa2ff;stroke:#000000;stroke-width:2px"
           x="0"
           y="0" />
        <text
           x="50%"
           y="50%"
           class="pos-label"
           id="text-pos-2"
           text-anchor="middle"
           dominant-baseline="central">AUX</text>
      </svg>
    </svg>
    <defs
       id="defs53">
      <marker
         id="end"
         viewBox="0 -5 10 10"
         refX="2"
         refY="2"
         markerWidth="15"
         markerHeight="15"
         orient="auto"
         style="fill:#ffffff">
        <path
           d="M 1,1 3,2 1,3 Z"
           id="path50" />
      </marker>
    </defs>
    <path
       class="dependency"
       attr="deprel"
       style="opacity:0.766;fill:none;stroke:#ffffff;stroke-width:4px"
       marker-end="url(#end)"
       d="M 323.5,100 318.25,67.5 C 313,35 305.65,35 298.3,35 v 0 h -5.27114 m -72.55772,0 H 215.2 c -7.35,0 -14.7,0 -19.95,32.5 L 190,94"
       id="dep_0_1"
       num="4" />
    <path
       class="dependency"
       attr="deprel"
       style="opacity:0.766;fill:none;stroke:#ffffff;stroke-width:4px"
       marker-end="url(#end)"
       d="m 353.5,100 5.25,-32.5 C 364,35 371.35,35 378.7,35 v 0 h 4.55063 m 56.99874,0 H 444.8 c 7.35,0 14.7,0 19.95,32.5 L 470,94"
       id="dep_2_1"
       num="5" />
    <line
       x1="338.5"
       y1="2.5"
       x2="338.5"
       y2="93"
       class="root-deprel"
       marker-end="url(#end)"
       style="opacity:0.766;stroke:#ffffff;stroke-width:4px"
       id="line57" />
    <text
       id="text-dep_0_1"
       class="deprel-label"
       transform="translate(256.75,35)"
       y="-1"
       text-anchor="middle"
		 style="fill:#ffffff"
       dominant-baseline="central">⊲nsubj</text>
    <text
       id="text-dep_2_1"
       class="deprel-label"
       transform="translate(411.75,35)"
       y="-1"
       text-anchor="middle"
		 style="fill:#ffffff"
       dominant-baseline="central">cop⊳</text>
    <text
       x="338.5"
       y="-8.5"
       class="root-deprel-label"
       text-anchor="middle"
       dominant-baseline="central"
		 style="fill:#ffffff"
       id="text61">ROOT</text>
  </g>
</svg>
