<?xml version="1.0" encoding="UTF-8" standalone="no"?>
<svg
   width="570"
   height="320"
   id="graph-svg"
   style="font-size:20px;font-family:Arial"
   version="1.1"
   sodipodi:docname="graph - Ben evdeydim.svg"
   inkscape:version="1.2.2 (b0a8486541, 2022-12-01)"
   xmlns:inkscape="http://www.inkscape.org/namespaces/inkscape"
   xmlns:sodipodi="http://sodipodi.sourceforge.net/DTD/sodipodi-0.dtd"
   xmlns="http://www.w3.org/2000/svg"
   xmlns:svg="http://www.w3.org/2000/svg">
  <defs
     id="defs75" />
  <sodipodi:namedview
     id="namedview73"
     pagecolor="#ffffff"
     bordercolor="#666666"
     borderopacity="1.0"
     inkscape:showpageshadow="2"
     inkscape:pageopacity="0.0"
     inkscape:pagecheckerboard="0"
     inkscape:deskcolor="#d1d1d1"
     showgrid="false"
     inkscape:zoom="0.84590377"
     inkscape:cx="496.51038"
     inkscape:cy="159.59262"
     inkscape:window-width="1600"
     inkscape:window-height="841"
     inkscape:window-x="0"
     inkscape:window-y="0"
     inkscape:window-maximized="1"
     inkscape:current-layer="graph-svg" />
  <g
     id="graph-g"
     transform="matrix(1.4968347,0,0,1.4968347,-220.34165,28.96651)">
    <rect
       width="246"
       height="110"
       x="277"
       y="80"
       class="multiword"
       subId="0"
       rx="5"
       ry="5"
       style="fill:#bcd2ff;stroke:#000000;stroke-width:2px"
       id="rect2" />
    <svg
       id="token-0"
       width="66.709679"
       height="70"
       y="100"
       style="overflow:visible"
       x="154.03464"
       version="1.1">
      <line
         x1="33.354839"
         y1="30"
         x2="33.354839"
         y2="40"
         class="pos-edge"
         style="stroke:#484848;stroke-width:3px"
         id="line4" />
      <svg
         x="45.586205"
         width="21.123472"
         height="30"
         style="overflow:visible"
         version="1.1"
         id="svg10">
        <path
           d="m 0,0 h 16.123472 a 5,5 0 0 1 5,5 v 20 a 5,5 0 0 1 -5,5 H 0 Z"
           class="tokenNum"
           style="fill:#afa2ff;stroke:#000000;stroke-width:2px"
           id="path6" />
        <text
           class="tokenNum-label"
           x="50%"
           y="50%"
           text-anchor="middle"
           dominant-baseline="central"
           id="text8">1</text>
      </svg>
      <svg
         width="45.586205"
         height="30"
         id="group-0"
         class="token"
         subId="0"
         style="overflow:visible"
         version="1.1">
        <path
           d="M 45.586205,0 H 5 A 5,5 1 0 0 0,5 v 20 a 5,5 1 0 0 5,5 h 40.586205 z"
           id="form-0"
           attr="form"
           subId="0"
           class="form"
           num="1"
           style="fill:#7fa1ff;stroke:#000000;stroke-width:2px" />
        <text
           x="50%"
           y="50%"
           text-anchor="middle"
           dominant-baseline="central"
           id="text-form-0"
           class="form-label">Ben</text>
      </svg>
      <svg
         x="-0.53390026"
         y="40"
         width="67.777481"
         height="30"
         style="overflow:visible"
         version="1.1"
         id="svg17">
        <rect
           width="67.777481"
           height="30"
           id="pos-0"
           class="pos"
           attr="upostag"
           subId="0"
           rx="5"
           ry="5"
           style="fill:#afa2ff;stroke:#000000;stroke-width:2px"
           x="0"
           y="0" />
        <text
           x="50%"
           y="50%"
           class="pos-label"
           id="text-pos-0"
           text-anchor="middle"
           dominant-baseline="central">PRON</text>
      </svg>
    </svg>
    <svg
       id="token-1"
       width="76.708549"
       height="70"
       y="100"
       style="overflow:visible"
       x="297.77747"
       version="1.1">
      <line
         x1="38.354275"
         y1="30"
         x2="38.354275"
         y2="40"
         class="pos-edge"
         style="stroke:#484848;stroke-width:3px"
         id="line20" />
      <svg
         x="55.585079"
         width="21.123472"
         height="30"
         style="overflow:visible"
         version="1.1"
         id="svg26">
        <path
           d="m 0,0 h 16.123472 a 5,5 0 0 1 5,5 v 20 a 5,5 0 0 1 -5,5 H 0 Z"
           class="tokenNum root"
           style="fill:#afa2ff;stroke:#000000;stroke-width:4px"
           id="path22" />
        <text
           class="tokenNum-label root"
           x="50%"
           y="50%"
           text-anchor="middle"
           dominant-baseline="central"
           style="font-weight:700"
           id="text24">3</text>
      </svg>
      <svg
         width="55.585079"
         height="30"
         id="group-1"
         class="token"
         subId="1"
         style="overflow:visible"
         version="1.1">
        <path
           d="M 55.585079,0 H 5 A 5,5 1 0 0 0,5 v 20 a 5,5 1 0 0 5,5 h 50.585079 z"
           id="form-1"
           attr="form"
           subId="1"
           class="form root"
           num="2"
           style="fill:#7fa1ff;stroke:#000000;stroke-width:4px" />
        <text
           x="50%"
           y="50%"
           text-anchor="middle"
           dominant-baseline="central"
           id="text-form-1"
           class="form-label root"
           style="font-weight:700">evde</text>
      </svg>
      <svg
         x="3.9143744"
         y="40"
         width="68.879807"
         height="30"
         style="overflow:visible"
         version="1.1"
         id="svg33">
        <rect
           width="68.879807"
           height="30"
           id="pos-1"
           class="pos"
           attr="upostag"
           subId="1"
           rx="5"
           ry="5"
           style="fill:#afa2ff;stroke:#000000;stroke-width:2px"
           x="0"
           y="0" />
        <text
           x="50%"
           y="50%"
           class="pos-label"
           id="text-pos-1"
           text-anchor="middle"
           dominant-baseline="central">NOUN</text>
      </svg>
    </svg>
    <svg
       id="token-2"
       width="73.345901"
       height="70"
       y="100"
       style="overflow:visible"
       x="430.89917"
       version="1.1">
      <line
         x1="36.672951"
         y1="30"
         x2="36.672951"
         y2="40"
         class="pos-edge"
         style="stroke:#484848;stroke-width:3px"
         id="line36" />
      <svg
         x="52.222431"
         width="21.123472"
         height="30"
         style="overflow:visible"
         version="1.1"
         id="svg42">
        <path
           d="m 0,0 h 16.123472 a 5,5 0 0 1 5,5 v 20 a 5,5 0 0 1 -5,5 H 0 Z"
           class="tokenNum"
           style="fill:#afa2ff;stroke:#000000;stroke-width:2px"
           id="path38" />
        <text
           class="tokenNum-label"
           x="50%"
           y="50%"
           text-anchor="middle"
           dominant-baseline="central"
           id="text40">4</text>
      </svg>
      <svg
         width="52.222431"
         height="30"
         id="group-2"
         class="token"
         subId="2"
         style="overflow:visible"
         version="1.1">
        <path
           d="M 52.222431,0 H 5 A 5,5 1 0 0 0,5 v 20 a 5,5 1 0 0 5,5 h 47.222431 z"
           id="form-2"
           attr="form"
           subId="2"
           class="form"
           num="3"
           style="fill:#7fa1ff;stroke:#000000;stroke-width:2px" />
        <text
           x="50%"
           y="50%"
           text-anchor="middle"
           dominant-baseline="central"
           id="text-form-2"
           class="form-label">ydim</text>
      </svg>
      <svg
         x="11.112901"
         y="40"
         width="51.120102"
         height="30"
         style="overflow:visible"
         version="1.1"
         id="svg49">
        <rect
           width="51.120102"
           height="30"
           id="pos-2"
           class="pos"
           attr="upostag"
           subId="2"
           rx="5"
           ry="5"
           style="fill:#afa2ff;stroke:#000000;stroke-width:2px"
           x="0"
           y="0" />
        <text
           x="50%"
           y="50%"
           class="pos-label"
           id="text-pos-2"
           text-anchor="middle"
           dominant-baseline="central">AUX</text>
      </svg>
    </svg>
    <defs
       id="defs55">
      <marker
         id="end"
         viewBox="0 -5 10 10"
         refX="2"
         refY="2"
         markerWidth="15"
         markerHeight="15"
         orient="auto"
         style="fill:#ffffff;stroke:#000000;stroke-width:0.2pt">
        <path
           d="M 1,1 3,2 1,3 Z"
           id="path52" />
      </marker>
    </defs>
    <svg
       x="345.54565"
       y="50"
       width="108.90871"
       height="30"
       style="overflow:visible"
       version="1.1"
       id="svg61">
      <rect
         width="108.90871"
         height="30"
         class="multiword-label"
         style="fill:#7fa1ff;stroke:#000000;stroke-width:2px"
         id="rect57"
         x="0"
         y="0" />
      u<text
         x="50%"
         y="50%"
         text-anchor="middle"
         dominant-baseline="central"
         id="text59">evdeydim ₂</text>
    </svg>
    <path
       class="dependency"
       attr="deprel"
       style="opacity:0.766;fill:none;stroke:#ffffff;stroke-width:4px"
       marker-end="url(#end)"
       d="M 320,100 314.75,67.5 C 309.5,35 302.15,35 294.8,35 v 0 h -5.01732 m -72.56536,0 H 212.2 c -7.35,0 -14.7,0 -19.95,32.5 L 187,94"
       id="dep_0_1"
       num="4" />
    <path
       class="dependency"
       attr="deprel"
       style="opacity:0.766;fill:none;stroke:#ffffff;stroke-width:4px"
       marker-end="url(#end)"
       d="m 350,100 5.25,-32.5 C 360.5,35 367.85,35 375.2,35 v 0 h 4.55041 m 56.99918,0 H 441.3 c 7.35,0 14.7,0 19.95,32.5 L 466.5,94"
       id="dep_2_1"
       num="5" />
    <line
       x1="335"
       y1="2.5"
       x2="335"
       y2="93"
       class="root-deprel"
       marker-end="url(#end)"
       style="opacity:0.766;stroke:#ffffff;stroke-width:4px"
       id="line65" />
    <text
       id="text-dep_0_1"
       class="deprel-label"
       transform="translate(253.5,35)"
       y="-1"
       text-anchor="middle"
		 style="fill:#ffffff"
       dominant-baseline="central">⊲nsubj</text>
    <text
       id="text-dep_2_1"
       class="deprel-label"
       transform="translate(408.25,35)"
       y="-1"
       text-anchor="middle"
		 style="fill:#ffffff"
       dominant-baseline="central">cop⊳</text>
    <text
       x="335"
       y="-8.5"
       class="root-deprel-label"
       text-anchor="middle"
       dominant-baseline="central"
		 style="fill:#ffffff"
       id="text69">ROOT</text>
  </g>
</svg>
